<svg width="752" height="800" viewBox="0 0 752 800" fill="none" xmlns="http://www.w3.org/2000/svg">
<path d="M457.3 378.6C454.5 376.7 450.667 377.467 448.767 380.3C437.633 397.067 414 397.967 412.767 397.967C412.533 397.967 412.433 397.967 412.2 397.967C383.067 397.967 371.933 422.833 371.5 423.833C370.167 426.967 371.6 430.567 374.633 431.933C375.433 432.267 376.333 432.5 377.1 432.5C379.467 432.5 381.7 431.167 382.733 428.8C382.833 428.567 390.5 411.467 410.167 410.367V442.2C409.367 449.067 406.133 454.467 400.367 458.5C394.4 462.667 386.433 464.8 376.633 464.8C364.933 464.8 355.367 460.767 348.3 452.767C341.1 444.767 337.5 433.433 337.5 418.8L337.6 383.7C338.167 370.767 341.633 360.533 348.3 353.233C355.5 345.233 364.933 341.2 376.633 341.2C386.433 341.2 394.4 343.333 400.367 347.5C406.333 351.667 409.7 357.4 410.267 364.833C410.267 365.067 410.267 365.4 410.267 365.633C410.267 369.9 413.767 373.4 418.033 373.4C422.3 373.4 425.8 369.9 425.8 365.633C425.8 365.4 425.8 365.067 425.8 364.833C424.667 353.7 419.6 344.933 410.5 338.3C401.4 331.6 390.067 328.333 376.333 328.333C360.033 328.333 346.867 333.733 336.867 344.4C327.433 354.4 322.467 367.567 321.9 383.767C321.9 384.9 321.8 386 321.8 387.133L321.9 418.733H321.8C321.8 436.6 326.867 450.9 336.867 461.567C346.867 472.233 360.033 477.633 376.333 477.633C390.067 477.633 401.4 474.367 410.533 467.733C418.867 461.667 423.8 453.667 425.5 443.767L425.833 408.467C436.067 406 450 400.367 458.8 387.1C461 384.333 460.233 380.5 457.3 378.6ZM565.6 17.0333H651.867C655.7 17.0333 658.833 13.9 658.833 10.0667C658.833 6.23334 655.7 3.10001 651.867 3.10001H565.6C561.767 3.10001 558.633 6.23334 558.633 10.0667C558.633 13.9 561.767 17.0333 565.6 17.0333ZM103.5 17.0333H189.767C193.6 17.0333 196.733 13.9 196.733 10.0667C196.733 6.23334 193.567 3.10001 189.767 3.10001H103.5C99.6667 3.10001 96.5333 6.23334 96.5333 10.0667C96.5333 13.9 99.5667 17.0333 103.5 17.0333ZM656.267 73.0333C660.133 73.0333 663.233 76.1667 663.233 80C663.233 83.8667 660.1 86.9667 656.267 86.9667C652.4 86.9667 649.3 83.8333 649.3 80C649.267 76.1667 652.4 73.0333 656.267 73.0333ZM375.667 51.1C379.533 51.1 382.633 54.2333 382.633 58.0667C382.633 61.9 379.5 65.0333 375.667 65.0333C371.833 65.0333 368.7 61.9 368.7 58.0667C368.7 54.2333 371.8 51.1 375.667 51.1ZM246.333 80.1333C246.433 80.1333 246.567 80.1333 246.667 80.1333C272.867 80.1333 284.567 63.7 293.467 48.4333C296.4 43.3667 307.2 26.5 322.467 22.1333C341.367 16.6333 361.5 25.4 369.367 42.6C370.5 45.0667 372.967 46.5333 375.433 46.6333C375.533 46.6333 375.667 46.6333 375.767 46.6333C375.867 46.6333 376 46.6333 376.2 46.6333C378.667 46.5333 381.133 45.0667 382.267 42.6C390.133 25.4 410.267 16.6333 429.167 22.1333C444.467 26.6333 455.267 43.4 458.167 48.4333C467.067 63.8333 478.733 80.1333 505.3 80.1333C521.267 80.1333 540.167 68.2 545.433 45.3667C549.833 26.4667 541.733 9.36668 524.067 0.733344C520.567 -0.966656 516.433 0.400011 514.733 3.86668C513.033 7.36668 514.4 11.5 517.867 13.2C534.633 21.5333 533.167 36.2667 531.8 42.2C529.1 53.9 518.767 66.2667 505.133 66.2667C487.7 66.2667 479.367 57.5 470.033 41.4C465.433 33.5333 452.6 14.4 432.933 8.66668C411.467 2.36668 388.733 9.90001 375.7 26.4333C362.667 9.90001 339.933 2.36668 318.467 8.66668C298.8 14.4 285.967 33.5333 281.367 41.4C272.033 57.4667 263.7 66.2667 246.6 66.2667C246.5 66.2667 246.367 66.2667 246.367 66.2667C231.533 66.1667 222.067 55.8 219.367 45.5667C218.033 40.7333 215.2 24.2 234.1 12.9667C237.367 11.0667 238.5 6.76668 236.467 3.40001C234.5 0.166677 230.367 -0.966656 226.967 1.06668C205.267 14 201.9 34.4667 205.933 49.3C210.9 67.6333 227.2 80 246.333 80.1333ZM92.6 73.0333C96.4667 73.0333 99.5667 76.1667 99.5667 80C99.5667 83.8667 96.4333 86.9667 92.6 86.9667C88.7667 86.9667 85.6 83.8667 85.6 80C85.6 76.1667 88.7333 73.0333 92.6 73.0333ZM73.0333 3.20001C76.9 3.20001 80 6.33334 80 10.1667C80 14 76.8667 17.1333 73.0333 17.1333C69.2 17.1333 66.0333 14.0333 66.0333 10.1667C66.0333 6.30001 69.1667 3.20001 73.0333 3.20001ZM681 3.20001C684.867 3.20001 687.967 6.33334 687.967 10.1667C687.967 14 684.833 17.1333 681 17.1333C677.167 17.1333 674.033 14 674.033 10.1667C674.033 6.33334 677.133 3.20001 681 3.20001ZM718.333 450C722.2 450 725.3 453.133 725.3 456.967C725.3 460.833 722.167 463.933 718.333 463.933C714.467 463.933 711.367 460.8 711.367 456.967C711.367 453.133 714.467 450 718.333 450ZM690.333 609.5C694.2 609.5 697.3 612.633 697.3 616.467C697.3 620.333 694.167 623.433 690.333 623.433C686.5 623.433 683.367 620.3 683.367 616.467C683.367 612.6 686.467 609.5 690.333 609.5ZM645.567 629.4C649.433 629.4 652.533 632.533 652.533 636.367C652.533 640.233 649.4 643.333 645.567 643.333C641.7 643.333 638.6 640.2 638.6 636.367C638.6 632.5 641.733 629.4 645.567 629.4ZM231.8 36.2667C231.8 46.6 240.233 55.0333 250.567 55.0333C260.9 55.0333 269.333 46.6 269.333 36.2667C269.333 25.9333 260.933 17.4667 250.6 17.4667C240.267 17.3667 231.8 25.8 231.8 36.2667ZM250.6 31.3C253.3 31.3 255.533 33.5333 255.533 36.2333C255.533 38.9333 253.3 41.1667 250.6 41.1667C247.9 41.1667 245.667 38.9333 245.667 36.2333C245.633 33.5667 247.9 31.3 250.6 31.3ZM503.633 55.0333C513.967 55.0333 522.4 46.6 522.4 36.2667C522.4 25.9333 513.967 17.5 503.633 17.5C493.3 17.5 484.867 25.9333 484.867 36.2667C484.867 46.6 493.3 55.0333 503.633 55.0333ZM503.633 31.3C506.333 31.3 508.567 33.5333 508.567 36.2333C508.567 38.9333 506.333 41.1667 503.633 41.1667C500.933 41.1667 498.7 38.9333 498.7 36.2333C498.7 33.5667 500.933 31.3 503.633 31.3ZM394.667 47.9667C391.067 49.3 389.267 53.2667 390.633 56.8667C391.967 60.4667 395.933 62.2667 399.533 61.0333C400.667 60.6 427.633 51.6 448.333 83.7667C449.667 85.8 451.933 86.9 454.167 86.9C455.4 86.9 456.767 86.5667 457.867 85.7667C461.133 83.7333 462.033 79.3667 460 76.2C438.4 42.8 407.833 43.1333 394.667 47.9667ZM357.1 47.9667C356.1 47.6333 346.867 44.3667 334.267 46.2667C322.567 47.9667 305.8 54.6 291.867 76.3C289.833 79.5667 290.733 83.8333 294 85.8667C295.133 86.6667 296.467 87 297.7 87C299.933 87 302.2 85.8667 303.533 83.8667C324.1 51.7 351.1 60.7 352.333 61.1333C355.933 62.4667 359.867 60.5667 361.233 56.9667C362.6 53.3667 360.7 49.3 357.1 47.9667ZM677.067 66.9667L710.933 28.5V83.9333C710.933 87.7667 714.067 90.9 717.9 90.9C721.733 90.9 724.867 87.7667 724.867 83.9333V10.1667C724.867 7.23334 723.067 4.66668 720.367 3.63334C717.667 2.60001 714.633 3.40001 712.733 5.53334L666.733 57.8333C664.133 60.7667 664.5 65.1333 667.4 67.6333C670.1 70.2333 674.467 69.9 677.067 66.9667ZM34.9 91.0333C38.7333 91.0333 41.8667 87.9 41.8667 84.0667V28.6L75.7333 67.0667C78.3 70 82.7 70.2333 85.5 67.7667C88.4333 65.1667 88.6333 60.8 86.1667 57.9667L40.1667 5.56668C38.2667 3.43334 35.2333 2.63334 32.5333 3.63334C29.8333 4.66668 28.0333 7.23334 28.0333 10.1667V84.0667C28.0333 87.8667 31.0667 91.0333 34.9 91.0333ZM525.9 97.9C522.633 97.6667 519.6 99.9333 518.8 103.067C518 106.333 519.6 109.7 522.5 111.067C533.533 116.233 543.533 118.267 552.533 118.267C569.733 118.267 583.467 110.733 593.033 102.867C608.333 90.2667 616.2 74.4 616.533 73.7333C618.1 70.4667 616.967 66.5333 613.833 64.7333C606.733 60.5667 594.5 58 575.833 69.3333C566.5 75.0667 559.3 81.9333 558.067 83.1667C540.967 98.2333 526.7 97.9 525.9 97.9ZM567.4 93.5C567.5 93.4 567.633 93.2667 567.733 93.1667C573.033 87.8667 587.967 75.6333 599.667 75.0667C596.3 79.9 591.233 86.4333 584.367 92.1667C574.233 100.5 563.433 104.533 551.967 104.3C556.733 101.833 562 98.2333 567.4 93.5ZM141.267 64.7C138.133 66.5 137 70.4667 138.6 73.7C138.933 74.3667 146.8 90.2333 162.1 102.833C171.667 110.7 185.267 118.233 202.6 118.233C211.7 118.233 221.733 116.2 232.633 111.033C235.667 109.567 237.133 106.3 236.333 103.033C235.533 99.8 232.6 97.6667 229.233 97.7667C228.667 97.7667 214.267 98.2 197.167 83.1333C195.933 81.9333 188.733 75.0667 179.4 69.3333C160.733 58.0667 148.367 60.6667 141.267 64.7ZM187.833 93.5C193.133 98.2333 198.4 101.7 203.233 104.3C178.933 104.533 162.867 85.9667 155.533 75.0667C167.233 75.6333 182.2 87.9 187.467 93.1667C187.633 93.2667 187.733 93.4 187.833 93.5ZM726.533 658.633C719.567 652.8 711.9 649.4 704.833 647.5C707.533 645.467 710.133 643.1 712.367 640.533C729.567 620.3 729.7 590.5 712.6 571.133C710 568.2 705.633 568 702.8 570.567C699.867 573.167 699.667 577.533 702.233 580.367C714.733 594.533 714.5 616.467 701.8 631.533C691.467 643.667 671.767 646.6 665.933 647.267C648.267 649.167 628.467 653.233 617.8 677.4C616.1 681.1 615.1 685.267 614.867 689.767C612.4 688.967 609.7 688.533 607 688.533C592.933 688.533 581.467 700 581.467 714.067C581.467 723.733 586.867 732.167 594.833 736.433C592.467 738.567 590.233 740.933 588.2 743.633C564.567 711.8 526.8 691.8 485.2 691.8C479.233 691.8 473.267 692.233 467.533 693.033C501.733 682.567 533.533 666.267 562.567 644.667C600.033 616.667 631.167 580.1 652.533 539.067C675.033 495.867 686.4 449.2 686.4 400.633C686.4 400.3 686.4 400.067 686.4 399.733C686.4 399.633 686.4 399.633 686.4 399.5C686.4 399.367 686.4 399.267 686.4 399.167C686.167 359.7 677.4 324.167 664.933 293.567C669.533 294.467 673.933 294.8 677.867 294.8C707 294.8 719.8 274.767 721.167 272.433C727.467 261.867 728.467 249.033 724.867 237.467C724.967 237.133 724.967 236.667 724.967 236.233V109.467C724.967 105.633 721.833 102.5 718 102.5C714.167 102.5 711.033 105.633 711.033 109.467V215.967C699.233 205.733 682.133 204.6 675.033 204.6C661.3 204.7 652.767 202.567 646.467 191.767C641.167 182.667 644.233 173.2 649.5 167.8C656.133 161.067 665.567 160.167 674.8 165.2C678.167 167 682.433 165.867 684.233 162.5C686.033 159.133 684.9 154.867 681.533 153.067C666.9 144.967 650.5 147 639.6 158C628.8 169.033 626.767 185.333 634.433 198.6C644.433 215.8 659.633 218.267 674.567 218.267C674.8 218.267 674.9 218.267 675.133 218.267C679.633 218.267 694.133 218.933 702.467 226.8C713.267 237.033 716.067 253.1 709 265.033C709 265.033 708.9 265.133 708.9 265.267C708.333 266.267 694.967 289 657.633 277.067C646.4 253.233 633.333 232.967 621.2 216.8L615.667 221.033L621.167 216.767L618.933 213.833C594.967 173.7 622.633 130.933 637.033 112.833L645.133 103.6C647.6 100.667 647.367 96.3 644.467 93.8C641.667 91.4333 637.6 91.5667 635.033 94.1333C634.8 94.3667 633.567 95.6 631.667 97.7333C619.167 110.433 570.367 155.433 523.033 131.933L521.7 131.033L521.033 130.6C478.633 107.767 436.8 94.6 396.867 91.2333C391.7 79.4333 384.833 70.4333 376.167 70.4333C367.4 70.4333 360.533 79.5333 355.233 91.5667C299.333 94.0333 229.833 130.133 226.9 131.6C179.3 155.6 130.267 110.367 117.767 97.6667C115.867 95.5333 114.5 94.3 114.4 94.0667C111.8 91.4667 107.767 91.3667 104.967 93.7333C102.033 96.2 101.833 100.6 104.3 103.533L112.967 113.333C118 119.6 124.4 128.7 129.8 139.6C143.3 166.933 143.533 191.767 130.6 213.6C114.5 233.633 101.467 254.667 91.4667 276.833C53.8 289.1 40.3 266.133 39.7333 265.133C39.7333 265.033 39.6333 265.033 39.6333 264.9C32.5333 252.967 35.3333 236.9 46.1333 226.667C54.4667 218.8 68.9667 218.133 73.4667 218.133H73.5667C88.6333 218.133 104.167 215.767 114.167 198.467C121.833 185.167 119.8 168.733 109 157.833C98.1 146.7 81.6667 144.8 67.0667 152.9C63.6667 154.7 62.4333 158.967 64.3667 162.333C66.1667 165.7 70.4333 166.933 73.8 165.033C83.1333 159.967 92.5667 160.867 99.1 167.633C104.4 173.033 107.333 182.467 102.133 191.567C95.9667 202.267 87.5333 204.4 74.0333 204.4C73.9333 204.4 73.8 204.4 73.6 204.4C67.4 204.4 53.0333 205.3 41.5333 212.733V111.167C41.5333 107.333 38.4 104.2 34.5667 104.2C30.7333 104.2 27.6 107.333 27.6 111.167V228.133C19.9333 241.833 19.5 258.6 27.3667 272.1C28.1333 273.567 32.9667 281.667 43.7667 287.733C49.9667 291.2 58.8333 294.467 70.6667 294.467C74.9333 294.467 79.6667 294.033 84.7333 293C72.6 325.6 66.5 360.7 66.3 398.933C66.3 399.033 66.3 399.033 66.3 399.167V399.267C66.3 399.6 66.3 399.933 66.3 400.167C66.3 469.233 90.6 537.033 134.667 591.133C173.7 639.033 226.767 674.567 285.6 692.7C279.4 691.8 273.1 691.367 266.833 691.367C225.567 691.367 188.1 711.033 164.5 742.433C162.6 739.967 160.467 737.6 158.1 735.567C165.533 731.067 170.6 722.967 170.6 713.633C170.6 699.567 159.133 688.1 145.067 688.1C142.467 688.1 140 688.533 137.633 689.233C137.3 684.833 136.3 680.7 134.7 676.967C123.9 652.8 104.233 648.733 86.5667 646.833C80.7333 646.167 61.0333 643.233 50.7 631.1C37.6667 616.367 37.4333 594.433 49.9 580.267C52.5 577.333 52.1333 572.967 49.3333 570.467C46.4 567.867 42.0333 568.233 39.5333 571.033C22.5667 590.367 22.6667 620.167 39.7667 640.433C42 643.133 44.6 645.367 47.3 647.4C40.2 649.3 32.5667 652.8 25.6 658.533C9.06668 672.133 0.633342 694.867 0.400009 725.8C-0.166658 728.6 1.06667 731.533 3.53334 733.1C4.66667 733.767 5.90001 734.1 7.13334 734.1C7.56668 734.1 8.13334 734 8.60001 733.867H8.70001C8.93334 733.867 9.03334 733.767 9.26668 733.633C9.60001 733.533 10.0667 733.4 10.4 733.2C10.5 733.2 10.5 733.1 10.6333 733.1C11.7667 732.433 12.7667 731.533 13.4333 730.4C16.1333 726.9 27.2667 722.533 36.5 720.6C72.6 712.733 80.1333 688.333 79 676.633C78.6667 672.8 75.3 670 71.4667 670.333C67.6333 670.667 64.8333 674.033 65.1667 677.867C65.1667 677.967 65.2667 680 64.6 683.033C62.9 690 56.7333 702.033 33.5667 707.1C33.4667 707.1 33.4667 707.1 33.3333 707.1C30.6333 707.667 22.5333 709.567 15 713.067C17.0333 693.033 23.4333 678.433 34.3333 669.333C51.1 655.4 73.2333 659.333 73.4667 659.433C74.2667 659.533 74.9333 659.533 75.6 659.433C79.3 660.233 82.4667 660.667 84.8333 660.9C103.4 662.933 114.733 666.967 121.833 682.833C127.333 695.333 120.267 709.7 110.7 716.9C105.867 720.6 92.9333 727.933 78.4333 716C75.5 713.533 71.1333 713.967 68.6333 716.9C66.1667 719.833 66.6 724.2 69.5333 726.7C76.0667 732.1 83.3667 735.233 90.9 736.133C81.2333 744 74.7 753.9 71.7667 759.067C62.3333 775.367 54.6667 784.133 41.9667 784.267V735.567C41.9667 731.733 38.8333 728.6 35 728.6C31.1667 728.6 28.0333 731.733 28.0333 735.567V792.033C28.0333 794.833 29.7333 797.2 32.0667 798.333C33.3 799.233 34.7667 799.9 36.3333 799.9H198.267C200.733 799.9 202.767 798.667 204.1 796.767C205 795.867 205.8 794.733 206.133 793.4C212.533 768.533 234.933 751.233 260.567 751.233C283.5 751.233 303.867 765.167 312.533 786H297.733C291.667 771.033 277.033 761.033 260.5 761.033C242.4 761.033 226.433 773.3 221.6 790.733C220.6 794.433 222.833 798.267 226.433 799.267C230.133 800.267 233.967 798.033 234.967 794.433C238.1 782.967 248.567 774.967 260.4 774.967C269.167 774.967 277.033 779.233 281.867 786H277.8C273.967 786 270.833 789.133 270.833 792.967C270.833 796.8 273.967 799.933 277.8 799.933H291.867C292.1 799.9 292.433 800 292.667 800C293 800 293.333 800 293.567 799.9H321.467C325.3 799.9 328.433 796.767 328.433 792.933C328.433 792.6 328.433 792.267 328.333 791.933C328.433 791.033 328.433 790.033 328.233 789C320.033 758.533 292.133 737.267 260.533 737.267C229.933 737.267 203.067 757.067 193.733 785.967H157.4C160.333 776.633 164.267 767.967 169.2 759.867C169.533 759.433 169.767 758.967 170.1 758.533C190.667 726.267 226.667 705.567 266.6 705.567C290.233 705.567 312.933 712.767 332.167 726.267C332.733 726.6 333.3 726.933 333.867 727.067C336.8 730.567 339.7 734.267 342.533 738.1C343.2 739 343.767 739.9 344.433 740.8C343.767 755.067 351.533 770.033 367.6 785.333C368.167 787.033 368.733 788.467 369.067 789.6V791.067C369.067 794.9 372.2 798.033 376.033 798.033C379.3 798.033 381.867 795.9 382.667 792.867C382.667 792.767 383.667 789.367 385.7 783.767C400.2 769.6 407.4 755.767 407.3 742.367C408.2 741.033 409.2 739.567 410.233 738.2C413.367 733.933 416.633 729.767 420.033 725.833C439.167 712.567 461.533 705.6 484.933 705.6C535.333 705.6 579.4 738.433 594.033 786H557.7C548.467 757.1 521.6 737.3 490.9 737.3C459.3 737.3 431.533 758.567 423.2 789.033C422.867 790.167 422.867 791.267 423.2 792.4C423.2 792.633 423.2 792.733 423.2 792.967C423.2 796.8 426.333 799.933 430.167 799.933H491.133C494.967 799.933 498.1 796.8 498.1 792.967C498.1 789.133 494.967 786 491.133 786H468.967C473.8 779.267 481.667 774.967 490.433 774.967C502.467 774.967 512.933 783.067 515.967 794.767C516.767 797.9 519.567 799.933 522.7 799.933C523.267 799.933 523.833 799.833 524.4 799.7C528.1 798.8 530.367 794.967 529.467 791.267C524.867 773.5 508.9 761 490.433 761C474 761 459.4 771 453.2 785.967H439.133C447.667 765.167 468.133 751.2 491.1 751.2C516.733 751.2 539.133 768.533 545.533 793.367C545.633 793.933 545.967 794.5 546.2 795.067C547.1 797.867 549.7 799.9 552.833 799.9H717.833C721.667 799.9 724.8 796.767 724.8 792.933C724.8 792.833 724.8 792.6 724.8 792.5C724.8 792.4 724.8 792.167 724.8 792.067V790.733C724.9 790.067 724.9 789.4 724.9 788.7C724.9 788.6 724.9 788.467 724.8 788.367V735.633C724.8 731.8 721.667 728.667 717.833 728.667C714 728.667 710.867 731.8 710.867 735.633V782.867C699.167 781.967 691.867 773.3 682.867 757.8C679.933 752.867 673.867 743.533 664.867 735.867C671.067 734.533 677 731.6 682.533 726.967C685.467 724.5 685.9 720.1 683.433 717.167C680.967 714.233 676.567 713.8 673.633 716.267C659.233 728.2 646.3 720.867 641.367 717.167C631.8 709.967 624.733 695.467 630.233 683.1C637.333 667.233 648.667 663.067 667.233 661.167C669.6 660.933 672.733 660.5 676.467 659.7C677.133 659.8 677.933 659.8 678.7 659.7C678.933 659.7 700.867 655.667 717.733 669.6C728.767 678.7 735.267 693.333 737.2 713.467C729.567 709.867 721.333 707.967 718.767 707.4C718.667 707.4 718.667 707.4 718.533 707.4C695.467 702.333 689.167 690.433 687.5 683.433C686.833 680.5 686.833 678.5 686.933 678.267C687.267 674.433 684.467 671.067 680.633 670.733C676.8 670.4 673.433 673.2 673.1 677.033C671.967 688.833 679.5 713.133 715.733 721C725.067 723.033 736.867 727.633 739 731.133C739 731.133 739 731.233 739.1 731.233C739.433 731.667 739.767 732.133 740.1 732.467C740.2 732.567 740.333 732.567 740.433 732.7C740.767 732.933 741.1 733.267 741.433 733.367C741.533 733.467 741.767 733.6 741.867 733.6C742.2 733.833 742.533 733.933 742.867 734.033C742.967 734.033 743.2 734.133 743.3 734.133C743.733 734.233 744.3 734.367 744.867 734.367C745.3 734.367 745.667 734.367 746.1 734.267C746.2 734.267 746.333 734.267 746.433 734.167C746.767 734.067 747.1 733.933 747.567 733.833H747.667C748 733.733 748.233 733.5 748.567 733.4L748.667 733.3C748.9 733.2 749.1 732.967 749.233 732.867C749.333 732.767 749.567 732.633 749.667 732.433C749.767 732.333 750 732.1 750.1 732C750.2 731.767 750.433 731.667 750.533 731.433C750.633 731.2 750.767 731.1 750.867 730.867C750.967 730.633 751.1 730.533 751.2 730.3C751.3 730.067 751.3 729.867 751.433 729.633C751.533 729.4 751.533 729.2 751.667 728.967C751.667 728.733 751.767 728.533 751.767 728.4C751.767 728.167 751.867 727.967 751.867 727.6V727.333C751.833 695.533 743.3 672.467 726.533 658.633ZM142.967 785.833H69.7667C75.9667 779.533 80.3333 772 83.7 766.167C86.6333 761.1 97.4333 744.233 112.7 739.867C130.7 734.567 147.567 740.767 155.9 755.033C150.4 764.567 146 774.933 142.967 785.833ZM144.867 725.433C138.467 725.433 133.267 720.267 133.267 713.833C133.267 707.4 138.433 702.233 144.867 702.233C151.267 702.233 156.467 707.4 156.467 713.833C156.467 720.267 151.167 725.433 144.867 725.433ZM557.4 630.633C491.733 623 444.267 651.2 415.933 676.167C403.667 686.967 394 698.1 386.7 707.533C385.367 706.633 384.1 705.733 383 705.167V685.367C436.2 631.933 489.067 615.967 524.133 612.033C547.4 609.433 566.2 611.6 577.433 613.733C571 619.733 564.367 625.333 557.4 630.633ZM639.833 532.567C633.1 545.5 625.333 557.867 616.767 569.8C607.867 567 596.733 564.4 583.367 563.167C613.167 525.367 632.067 480.267 638.133 432.7C647.8 431.567 661.2 427.4 671.433 420.767C668.733 459.8 658.167 497.367 639.833 532.567ZM592.5 407.067L600.6 406.733C603.3 418.767 612.4 428.433 624.333 431.7C618.033 479.833 598.033 525.267 566.067 562.367C550.667 562.367 532.767 564.167 512.533 568.567C559.767 530.1 590.567 472.167 592.5 407.067ZM460.333 584.733C455.833 586.533 452.7 588 451.1 588.667C432.433 596.1 412.4 600.933 391.5 602.5L578.067 415.933C572.467 491.067 525.667 554.733 460.333 584.733ZM672.1 399.533C671.867 405.833 654.667 416.067 639.5 418.533C637.367 418.867 635.233 419.1 633.2 419.1C630.5 419.1 627.9 418.533 625.567 417.533C618.467 414.5 613.533 407.533 613.533 399.433C613.533 391.333 618.467 384.367 625.567 381.333C627.933 380.333 630.5 379.767 633.2 379.767C635.233 379.767 637.367 380 639.5 380.333C654.667 382.8 671.767 393.033 672.1 399.233C672.1 399.3 672.1 399.4 672.1 399.533ZM607 221.6L609.933 225.533C635.467 259.6 665.367 312.367 671.1 378.033C660.967 371.5 647.7 367.333 638.133 366.233C630.933 309.333 605.633 257.933 568.167 218.233C569.733 214.967 570.633 211.267 570.633 207.433C570.633 202.267 569.067 197.433 566.467 193.5L598.4 157.067C592.367 180.2 595.3 202.133 607 221.6ZM513.767 142.767L515.233 143.767L516 144.233C527.133 149.867 539.067 152.667 551.433 152.667C564.467 152.667 578.1 149.533 591.8 143.233L555.8 184.267C552.533 182.7 548.933 181.9 545 181.9C539.933 181.9 535.333 183.367 531.4 185.833C495.967 159.967 454.033 142.767 408.367 137.133C407.233 128.933 405 117.233 401.633 105.767C437.733 109.8 475.4 122.2 513.767 142.767ZM556.733 207.433C556.733 212.5 553.367 216.867 548.733 218.467C547.6 218.8 546.367 219.033 545.133 219.033C544.8 219.033 544.333 219.033 544 219.033C538.833 218.6 534.667 214.633 533.767 209.7C533.667 209.033 533.533 208.233 533.533 207.567C533.533 206.767 533.633 206.1 533.767 205.333C534.767 200.267 539.067 196.333 544.333 196C544.567 196 544.9 196 545.133 196C545.367 196 545.567 196 545.8 196C550.967 196.333 555.367 200.033 556.5 205C556.6 205.667 556.733 206.233 556.733 206.9C556.6 206.967 556.733 207.2 556.733 207.433ZM408.933 151.3C450.767 156.8 489.467 172.767 522.2 196.4C520.5 199.767 519.6 203.5 519.6 207.533C519.6 212.6 521.067 217.2 523.633 221.267L467.633 285.133C465.033 288.067 465.4 292.433 468.3 294.933C469.633 296.067 471.233 296.633 472.9 296.633C474.8 296.633 476.733 295.833 478.2 294.267L534.1 230.5C537.467 232.2 541.2 233.1 545.233 233.1C550.4 233.1 555.133 231.533 559.067 228.933C593.933 266.267 617.433 314.167 624.4 367.267C612.367 370.633 603.033 380.533 600.567 392.9L592.567 393.233C590.867 341.833 570.967 292.8 536.233 254.667C533.633 251.867 529.267 251.633 526.433 254.233C523.633 256.833 523.4 261.2 526 264.033C556.6 297.533 574.8 340.067 578.3 385.033L503.5 310.467C500.8 307.767 496.4 307.767 493.7 310.467C491 313.167 491 317.567 493.7 320.267L574 400.567L376.067 598.5L178.133 400.567L257.767 320.933C260.467 318.233 260.467 313.833 257.767 311.133C255.067 308.433 250.667 308.433 247.967 311.133L174.133 385C178.067 333.833 201 287.833 236 254.333L270.867 294.133C272.2 295.7 274.133 296.5 276.167 296.5C277.733 296.5 279.433 295.933 280.767 294.8C283.7 292.2 283.9 287.833 281.433 285L246.433 245.1C277.933 218.8 317.4 201.8 360.7 198.533L301.333 257.367C298.633 260.067 298.633 264.467 301.333 267.167C302.667 268.5 304.467 269.2 306.267 269.2C308.067 269.2 309.767 268.533 311.2 267.167L376.433 202.6L439.767 265.933C442.467 268.633 446.867 268.633 449.567 265.933C452.267 263.233 452.267 258.833 449.567 256.133L392 198.567C427.667 201.267 461.6 213.2 491.2 233.533C494.333 235.667 498.733 234.867 500.867 231.733C503 228.6 502.2 224.2 499.067 222.067C464.867 198.567 425.067 185.5 383.467 184.267V179.3C396.467 176.167 406.933 165.033 408.933 151.3ZM205.733 234.867C209.667 234.867 213.367 233.967 216.633 232.4L226.633 243.867C186.933 281.767 161.633 334.5 159.6 393.1L153.967 392.767C151.267 379.6 141.033 369.267 127.867 366.567C134.733 314.5 157.667 267.5 191.4 230.6C195.6 233.3 200.433 234.867 205.733 234.867ZM194.133 209.467C194.133 208.9 194.133 208.467 194.233 207.9C194.233 207.567 194.333 207.333 194.333 207C195.333 202.067 199.633 198.233 204.8 197.9C205.033 197.9 205.233 197.9 205.367 197.9C205.5 197.9 205.467 197.9 205.6 197.9C210.9 197.9 215.4 201.5 216.733 206.433C216.967 207.433 217.167 208.467 217.167 209.467C217.167 210.267 217.067 211.033 216.933 211.833C215.933 216.767 211.633 220.6 206.467 220.933C206.133 220.933 205.9 220.933 205.567 220.933C204.1 220.933 202.633 220.6 201.4 220.133C197.3 218.567 194.133 214.3 194.133 209.467ZM153.867 406.7L159.6 407.033C161.5 472.267 192.433 530.3 239.8 568.767C219.433 564.267 201.567 562.467 186.033 562.367C154.333 525.367 134.2 480.167 127.9 432.233C140.833 429.533 151.067 419.533 153.867 406.7ZM174 415.933L360.567 602.5C261.167 594.967 181.533 515.367 174 415.933ZM357 135.9C360.033 114.867 370.367 86.7667 375.767 84.5C381.967 86.8667 391.5 116 394.433 135.767C395 139.733 395.333 143.333 395.333 146.267C395.333 147.5 395.233 148.633 395 149.767C393.3 158.867 385.333 165.833 375.667 165.833C366 165.833 358 158.867 356.333 149.767C356.1 148.633 356 147.4 356 146.267C356.1 143.2 356.433 139.733 357 135.9ZM369.133 179.2V184.033C318.967 185.6 273.1 204.4 237.1 234.533L227.2 223.167C229.8 219.233 231.367 214.4 231.367 209.333C231.367 205.067 230.233 201 228.433 197.533C261.4 173.367 300.4 157.033 342.8 151.3C344.733 165.267 355.4 176.5 369.133 179.2ZM197.4 152.667C209.767 152.667 221.7 149.867 232.933 144.233C233.6 143.9 297.833 110.5 349.767 106C346.4 117.367 344.133 129.167 343.033 137.267C296.833 143 254.2 160.867 218.533 187.4C214.733 185.167 210.433 183.933 205.733 183.933C201.8 183.933 198.1 184.833 194.833 186.4L157.033 143.333C170.867 149.5 184.367 152.667 197.4 152.667ZM141.267 222.267L141.833 221.467C153.533 202.133 156.467 180.067 150.6 156.9L184.333 195.467C181.767 199.433 180.2 204.267 180.2 209.333C180.2 213.033 181 216.533 182.433 219.8C145.667 259.4 120.9 310.233 113.833 366.467C103.833 368.033 90.5667 372.3 80.5333 378.733C84.5 319.333 104.4 267.933 141.267 222.267ZM80 399.3C80.2333 392.767 98.3333 383.767 112.6 380.867C115.733 380.2 118.667 379.867 121.133 379.867C123.033 379.867 124.733 380.1 126.533 380.667C134.733 383.033 140.8 390.567 140.8 399.567C140.8 408.567 134.733 416.1 126.533 418.467C124.833 418.9 123.033 419.267 121.133 419.267C118.533 419.267 115.633 418.933 112.6 418.267C98.3333 415.233 80.2 406.233 80 399.7C80 399.4 80 399.4 80 399.3ZM80.6667 420C90.6667 426.533 104.067 430.8 113.967 432.367C119.933 480.067 138.833 525.267 168.733 563.033C155.367 564.267 144.2 566.733 135.233 569.567C102.933 525.267 84.2667 474.067 80.6667 420ZM145.233 582.6C144.9 582.167 144.567 581.8 144.233 581.367C178.1 572.033 215.1 576.967 241.067 583.167C272.433 590.7 295.4 601.6 295.6 601.733L295.7 601.5C320.567 611.4 347.667 616.9 376 616.9C404.233 616.9 431.233 611.5 455.967 601.6C455.967 601.6 456.2 601.5 456.633 601.267C459.567 600.033 462.6 598.8 465.4 597.433C474.967 593.5 491.033 587.633 510.4 583.033C536.6 576.733 573.733 571.8 607.567 581.233C601.733 588.433 595.633 595.3 589.133 601.933C579.7 599.333 555.633 594.4 523.133 597.9C487.833 601.733 435.867 616.8 382.767 665.833V653.567C382.767 649.733 379.633 646.6 375.8 646.6C371.967 646.6 368.833 649.733 368.833 653.567V665.167C316.1 616.7 264.367 601.733 229.267 597.9C195.967 594.3 171.567 599.7 162.7 602.167C156.8 596.1 150.833 589.467 145.233 582.6ZM174.8 613.867C186.033 611.633 205.067 609.367 228.767 612.067C291.2 619.033 339.1 654.7 369.133 684.6V704.967C368.133 705.533 367 706.2 365.767 707.1C358.467 697.767 348.9 686.867 336.867 676.3C308.533 651.233 260.833 622.867 194.933 630.767V630.867C187.967 625.467 181.2 619.833 174.8 613.867ZM349.467 724.1C336.3 707.233 321.9 694.533 307.533 684.967L307.633 684.633C307.3 684.533 306.967 684.4 306.633 684.4C282.667 668.767 258.6 661.9 239.267 659.1C230.167 654.367 221.167 649.1 212.5 643.367C254.9 642.133 293.367 656.533 327.333 686.333C339.033 696.567 348.267 707.133 355.233 716.233C353.067 718.567 351.133 721.167 349.467 724.1ZM383.067 766.267C381.367 768.3 379.567 770.3 377.567 772.333C377.133 772.767 376.567 773.333 376 773.8L375.9 773.9L375.8 774V773.767C375.567 773.533 375.233 773.333 375 772.967C372.767 770.833 370.833 768.7 369.033 766.567C360.833 756.767 357.233 747.667 358.467 739.367C358.567 738.7 358.7 738.033 358.9 737.333C359.8 733.733 361.5 730.6 363.5 727.9C365.2 725.667 367.1 723.733 369 722.067C370.7 720.6 372.367 719.367 373.833 718.367C374.5 717.933 375.067 717.567 375.633 717.233C375.633 717.233 375.733 717.233 375.733 717.133H375.833C376.633 717.567 377.4 718.133 378.433 718.833C379.767 719.733 381.367 720.967 382.933 722.333C384.967 724.133 386.967 726.267 388.667 728.633C390.7 731.567 392.367 734.833 393.067 738.533C393.067 738.767 393.167 739.1 393.3 739.333C394.567 747.467 391.067 756.467 383.067 766.267ZM410.533 715.533C410.3 715.767 410.1 715.967 409.967 716.2C407.367 719.133 405.033 722.033 402.867 724.867C401.167 721.933 399.267 719.233 397.233 716.867C404.2 707.767 413.667 696.833 425.567 686.4C459.3 656.7 497.667 642.3 539.733 643.333C530.967 649.067 521.967 654.467 512.733 659.2C464.6 666.5 431.667 691.467 410.533 715.533ZM606.767 702.267C613.167 702.267 618.367 707.433 618.367 713.867C618.367 720.3 613.2 725.467 606.767 725.467C600.333 725.467 595.167 720.3 595.167 713.867C595.2 707.567 600.367 702.267 606.767 702.267ZM641.867 738.367C657.167 742.867 667.967 759.633 670.867 764.667C674.467 770.967 679.3 779.3 686.4 785.8H608.667C605.733 775.233 601.567 765.233 596.3 756C604.867 740.733 623.967 733.1 641.867 738.367ZM49.3 249.833C49.3 261.2 58.5333 270.533 70 270.533C81.4667 270.533 90.6667 261.3 90.6667 249.833C90.6667 238.467 81.4333 229.133 69.9667 229.133C58.5 229.133 49.3 238.467 49.3 249.833ZM76.7333 249.833C76.7333 253.533 73.7 256.567 70 256.567C66.3 256.567 63.2667 253.533 63.2667 249.833C63.2667 246.133 66.3 243.1 70 243.1C73.7 243.067 76.7333 246.133 76.7333 249.833ZM700.567 249.833C700.567 238.467 691.333 229.133 679.867 229.133C668.5 229.133 659.167 238.367 659.167 249.833C659.167 261.2 668.4 270.533 679.867 270.533C691.333 270.533 700.567 261.3 700.567 249.833ZM673.133 249.833C673.133 246.133 676.167 243.1 679.867 243.1C683.567 243.1 686.6 246.133 686.6 249.833C686.6 253.533 683.567 256.567 679.867 256.567C676.167 256.7 673.133 253.667 673.133 249.833ZM720.467 301.333C717.867 300.333 714.833 300.9 712.833 302.9C703.733 312.233 688.767 311.9 688.533 311.9C688.433 311.9 688.3 311.9 688.3 311.9C684.6 311.9 681.567 314.833 681.333 318.533C681.233 322.367 684.133 325.633 687.967 325.733C688.633 325.733 699.667 326.067 710.9 320.9V434.367C710.9 438.2 714.033 441.333 717.867 441.333C721.7 441.333 724.833 438.2 724.833 434.367V307.733C724.733 304.933 723.067 302.333 720.467 301.333ZM33.6667 441.367C37.5 441.367 40.6333 438.233 40.6333 434.4V320.9C51.8667 326.067 62.9 325.733 63.5667 325.733C67.4 325.633 70.4333 322.367 70.2 318.533C70.1 314.733 66.8333 311.7 63 311.9C62.9 311.9 47.8333 312.233 38.7 302.9C36.7 300.9 33.7667 300.333 31.0667 301.333C28.4667 302.333 26.8 304.933 26.8 307.733V434.467C26.6667 438.333 29.8333 441.367 33.6667 441.367ZM725.967 557.067C725.967 553.233 722.833 550.1 719 550.1H674C670.167 550.1 667.033 553.233 667.033 557.067C667.033 560.9 670.167 564.033 674 564.033H719C722.833 564.067 725.967 561 725.967 557.067ZM679.3 583.733C683.133 583.733 686.267 580.6 686.267 576.767C686.267 572.933 683.133 569.8 679.3 569.8H661.967C658.133 569.8 655 572.933 655 576.767C655 580.6 658.133 583.733 661.967 583.733H679.3ZM696.167 596.567C696.167 592.733 693.033 589.6 689.2 589.6H646.233C642.4 589.6 639.267 592.733 639.267 596.567C639.267 600.4 642.4 603.533 646.233 603.533H689.2C693.033 603.533 696.167 600.5 696.167 596.567ZM668.967 616.467C668.967 612.633 665.833 609.5 662 609.5H628.367C624.533 609.5 621.4 612.633 621.4 616.467C621.4 620.3 624.533 623.433 628.367 623.433H662C665.8 623.433 668.967 620.3 668.967 616.467ZM606.533 629.4C602.7 629.4 599.567 632.533 599.567 636.367C599.567 640.2 602.7 643.333 606.533 643.333H625.667C629.5 643.333 632.633 640.2 632.633 636.367C632.633 632.533 629.5 629.4 625.667 629.4H606.533ZM719 510.4H693.933C690.1 510.4 686.967 513.533 686.967 517.367C686.967 521.2 690.1 524.333 693.933 524.333H719C722.833 524.333 725.967 521.2 725.967 517.367C725.967 513.567 722.833 510.4 719 510.4ZM719 530.3H684.033C680.2 530.3 677.067 533.433 677.067 537.267C677.067 541.1 680.2 544.233 684.033 544.233H719C722.833 544.233 725.967 541.1 725.967 537.267C725.967 533.433 722.833 530.3 719 530.3ZM719 470.7H707.867C704.033 470.7 700.9 473.833 700.9 477.667C700.9 481.5 704.033 484.633 707.867 484.633H719C722.833 484.633 725.967 481.5 725.967 477.667C725.967 473.867 722.833 470.7 719 470.7ZM719 490.6H701.9C698.067 490.6 694.933 493.733 694.933 497.567C694.933 501.4 698.067 504.533 701.9 504.533H719C722.833 504.533 725.967 501.4 725.967 497.567C725.967 493.767 722.833 490.6 719 490.6ZM33.4333 450.367C37.3 450.367 40.4 453.5 40.4 457.333C40.4 461.2 37.2667 464.3 33.4333 464.3C29.5667 464.3 26.4667 461.167 26.4667 457.333C26.4667 453.467 29.5667 450.367 33.4333 450.367ZM61.5333 609.7C65.4 609.7 68.5 612.833 68.5 616.667C68.5 620.533 65.3667 623.633 61.5333 623.633C57.6667 623.633 54.5667 620.5 54.5667 616.667C54.5667 612.833 57.7 609.7 61.5333 609.7ZM106.3 629.633C110.167 629.633 113.267 632.767 113.267 636.6C113.267 640.467 110.133 643.567 106.3 643.567C102.467 643.567 99.3333 640.433 99.3333 636.6C99.3333 632.733 102.467 629.633 106.3 629.633ZM32.7667 564.267H77.7667C81.6 564.267 84.7333 561.133 84.7333 557.3C84.7333 553.467 81.5667 550.333 77.7333 550.333H32.7333C28.9 550.333 25.7667 553.467 25.7667 557.3C25.7667 561.233 28.9333 564.267 32.7667 564.267ZM89.7667 570.133H72.4333C68.6 570.133 65.4667 573.267 65.4667 577.1C65.4667 580.933 68.6 584.067 72.4333 584.067H89.7667C93.6 584.067 96.7333 580.933 96.7333 577.1C96.7333 573.267 93.6 570.133 89.7667 570.133ZM105.533 589.933H62.5667C58.7333 589.933 55.6 593.067 55.6 596.9C55.6 600.733 58.7333 603.867 62.5667 603.867H105.533C109.367 603.867 112.5 600.733 112.5 596.9C112.5 592.967 109.333 589.933 105.533 589.933ZM123.4 609.7H89.7667C85.9333 609.7 82.8 612.833 82.8 616.667C82.8 620.5 85.9333 623.633 89.7667 623.633H123.4C127.233 623.633 130.367 620.5 130.367 616.667C130.367 612.867 127.233 609.7 123.4 609.7ZM119.133 636.6C119.133 640.433 122.267 643.567 126.1 643.567H145.233C149.067 643.567 152.2 640.433 152.2 636.6C152.2 632.767 149.067 629.633 145.233 629.633H126.1C122.267 629.633 119.133 632.767 119.133 636.6ZM32.7667 524.567H57.8333C61.6667 524.567 64.8 521.433 64.8 517.6C64.8 513.767 61.6667 510.633 57.8333 510.633H32.7667C28.9333 510.633 25.8 513.767 25.8 517.6C25.7667 521.433 28.9333 524.567 32.7667 524.567ZM32.7667 544.5H67.7333C71.5667 544.5 74.7 541.367 74.7 537.533C74.7 533.7 71.5667 530.567 67.7333 530.567H32.7667C28.9333 530.567 25.8 533.7 25.8 537.533C25.8 541.367 28.9333 544.5 32.7667 544.5ZM32.7667 484.867H43.9C47.7333 484.867 50.8667 481.733 50.8667 477.9C50.8667 474.067 47.7333 470.933 43.9 470.933H32.7667C28.9333 470.933 25.8 474.067 25.8 477.9C25.8 481.733 28.9333 484.867 32.7667 484.867ZM32.7667 504.667H49.8667C53.7 504.667 56.8333 501.533 56.8333 497.7C56.8333 493.867 53.7 490.733 49.8667 490.733H32.7667C28.9333 490.733 25.8 493.867 25.8 497.7C25.7667 501.633 28.9333 504.667 32.7667 504.667ZM375.9 773.9C376 773.8 375.867 773.8 375.867 773.667L375.9 773.9ZM692.133 139.167C692.233 139.167 692.233 139.167 692.133 139.167C695.267 139.167 698.1 137.033 698.867 133.867C701.333 123.967 700.333 115.533 695.6 108.567C688.067 97.3333 674.233 95.2 672.667 94.9667C669.067 94.5333 665.7 96.7667 664.9 100.367C662.3 112.167 663.767 121.633 669.4 128.6C677.733 138.7 690.767 139.067 692.133 139.167ZM684.267 116.433C685.6 118.567 686.4 121.033 686.4 123.967C684.367 123.167 682.133 121.933 680.567 119.933C678.767 117.7 677.867 114.767 677.867 111.033C680.1 112.167 682.567 113.967 684.267 116.433ZM646.933 38.6333C639.4 27.4 625.567 25.2667 624 25.0333C620.4 24.6 617.033 26.8333 616.233 30.4333C613.633 42.2333 615.1 51.7 620.733 58.6667C628.833 68.8 641.867 69.1333 643.333 69.1333C646.467 69.1333 649.3 67 650.067 63.8333C652.667 54.1333 651.633 45.6 646.933 38.6333ZM631.733 49.9667C629.933 47.7333 629.033 44.8 629.033 41.0667C631.4 42.2 633.867 44 635.433 46.4667C636.767 48.6 637.567 51.0667 637.567 54C635.567 53.2333 633.3 52 631.733 49.9667ZM80.4333 94.9667C78.8667 95.2 65.1333 97.3333 57.5 108.567C52.9 115.533 51.7667 123.967 54.2333 133.867C55.0333 136.9 57.8333 139.167 61 139.167C62.4667 139.167 75.5 138.833 83.6 128.7C89.2 121.733 90.6667 112.167 88.1 100.467C87.4 96.8667 84.0333 94.5333 80.4333 94.9667ZM72.9 119.933C71.3333 121.967 69.0667 123.2 66.9333 123.967C66.9333 121.033 67.7333 118.467 69.0667 116.433C70.7667 113.967 73.2333 112.167 75.4667 111.033C75.5 114.767 74.6 117.7 72.9 119.933ZM128.133 25C126.567 25.2333 112.833 27.3667 105.167 38.6333C100.567 45.6 99.4333 54.0333 101.933 63.9333C102.7 66.9667 105.533 69.2 108.667 69.2C110.133 69.2 123.167 68.8667 131.267 58.7333C136.9 51.7667 138.367 42.2 135.767 30.5C135 26.9333 131.733 24.5667 128.133 25ZM120.467 49.9667C118.9 52 116.667 53.2333 114.533 54.0333C114.533 51.1 115.333 48.5333 116.667 46.5C118.333 44.0333 120.8 42.2333 123.067 41.1C123.067 44.8 122.267 47.7333 120.467 49.9667ZM595.3 352.067C595.733 355.667 598.667 358.267 602.167 358.267C602.4 358.267 602.733 358.267 602.967 358.267C606.8 357.833 609.5 354.333 609.033 350.5C602.067 289.767 560.567 246.8 558.767 245C556.067 242.3 551.667 242.2 548.967 244.9C546.267 247.6 546.167 252 548.867 254.7C549.3 255.1 588.9 296.167 595.3 352.067ZM149.933 358.133C150.167 358.133 150.5 358.133 150.733 358.133C154.233 358.133 157.267 355.533 157.6 351.933C164 296.067 203.6 255 203.933 254.667C206.633 251.967 206.533 247.467 203.833 244.867C201.1 242.167 196.6 242.167 194.033 245C192.233 246.8 150.833 289.767 143.767 350.5C143.433 354.3 146.133 357.667 149.933 358.133Z" fill="white"/>
</svg>
